<svg width="45" height="54" viewBox="0 0 45 54" fill="none" xmlns="http://www.w3.org/2000/svg">
<path d="M29.9813 33.205C30.8664 34.4813 31.6184 37.4571 31.6184 37.4571C31.6184 37.4571 31.4911 37.2166 31.3126 36.8227C31.1331 36.4287 30.7379 36.094 30.7379 36.094C30.7379 36.094 31.1947 36.9017 31.5304 38.0147C31.8661 39.1269 32.0877 40.6077 32.0877 40.6077C32.0877 40.6077 31.9526 40.3039 31.6269 39.7683C31.3013 39.2319 30.7338 38.3103 30.7338 38.3103C30.7338 38.3103 31.8931 40.6021 32.0167 44.0515C32.0652 45.4013 32.4748 47.6196 32.4748 47.6196C32.4748 47.6196 31.5921 46.5251 31.0795 46.0016C30.266 45.1697 28.9458 44.1901 28.1168 43.429C26.8821 42.2955 24.7211 39.9807 24.7211 39.9807L24.9084 40.4379C25.0957 40.8951 25.2947 41.4473 25.2947 41.4473C25.2947 41.4473 23.2203 39.1228 22.6277 37.4242C21.9602 35.51 22.3761 32.9988 22.3761 32.9988C22.3761 32.9988 23.4618 32.8123 24.8855 32.0333C26.3564 31.2276 26.9676 30.5454 26.9676 30.5454C26.9676 30.5454 28.626 31.25 29.9813 33.205Z" fill="url(#paint0_linear_179_2)"/>
<path d="M28.744 32.8633C29.409 33.8221 29.9747 36.0588 29.9747 36.0588C29.9747 36.0588 29.8795 35.8783 29.745 35.582C29.6104 35.2857 29.3127 35.0346 29.3127 35.0346C29.3127 35.0346 29.6559 35.6421 29.9079 36.4779C30.1598 37.3137 30.3272 38.4262 30.3272 38.4262C30.3272 38.4262 30.2253 38.1981 29.9806 37.7954C29.736 37.3926 29.3094 36.6995 29.3094 36.6995C29.3094 36.6995 30.1806 38.4222 30.2736 41.0148C30.3098 42.0293 30.6174 43.6961 30.6174 43.6961C30.6174 43.6961 29.9537 42.8733 29.5687 42.48C28.9574 41.8546 27.9658 41.1188 27.342 40.5461C26.414 39.6938 24.7905 37.9547 24.7905 37.9547L24.9309 38.2984C25.0713 38.6422 25.221 39.0576 25.221 39.0576C25.221 39.0576 23.6624 37.3106 23.2168 36.0339C22.7152 34.5953 23.0277 32.7076 23.0277 32.7076C23.0277 32.7076 23.8441 32.5678 24.9131 31.9819C26.0193 31.3765 26.4773 30.8633 26.4773 30.8633C26.4773 30.8633 27.7251 31.3944 28.744 32.8633Z" fill="url(#paint1_linear_179_2)"/>
<path d="M20.0058 31.1562C19.7959 31.0066 15.6675 26.8924 13.3275 21.9796C10.9874 17.0667 10.8457 14.8705 10.8457 14.8705C10.8457 14.8705 11.7421 13.6853 14.0192 12.5454C16.2964 11.4055 17.2118 11.0783 17.4944 11.1829C17.777 11.2876 22.7144 16.1664 24.6625 21.4005C26.6106 26.6338 26.7103 27.2324 26.7103 27.2324C26.7103 27.2324 26.6179 27.8728 25.4755 28.5732C24.333 29.2736 21.4919 30.8958 20.8669 31.0659C20.2419 31.2361 20.0058 31.1562 20.0058 31.1562Z" fill="url(#paint2_linear_179_2)"/>
<path d="M10.8405 7.05704C10.4269 7.32951 10.3424 7.70733 10.2904 10.0166C10.2385 12.3258 10.9207 14.7537 10.9207 14.7537L10.9663 14.7279C11.2771 14.3799 12.214 13.4489 14.0191 12.5447C15.7331 11.6865 16.6756 11.2896 17.1574 11.1894L17.3061 11.1039L16.9384 10.6872C16.5707 10.2704 14.1745 8.52409 13.0527 7.86779C11.9316 7.21151 11.2541 6.78458 10.8405 7.05704Z" fill="url(#paint3_linear_179_2)"/>
<path d="M26.6444 27.0389L32.1262 29.8635C32.1262 29.8635 31.1405 27.2349 29.2412 24.1467C27.342 21.0585 27.04 20.8106 27.04 20.8106L24.021 19.9012C24.0209 19.902 26.0977 24.8294 26.6444 27.0389Z" fill="url(#paint4_linear_179_2)"/>
<path d="M15.1671 25.2131L14.5049 27.9782C14.5049 27.9782 15.4472 30.4628 16.7126 32.5533C17.978 34.6439 19.4115 36.6919 19.4115 36.6919L19.8812 31.1095C19.8804 31.1086 15.9649 27.0254 15.1671 25.2131Z" fill="url(#paint5_linear_179_2)"/>
<path d="M25.4746 28.5733C24.3321 29.2745 21.4911 30.8958 20.866 31.066C20.6962 31.1126 20.556 31.1395 20.4402 31.1556L21.4571 32.6335C21.4571 32.6335 22.5009 32.7632 24.4947 31.5427C26.4884 30.3222 27.1763 29.6773 27.1624 29.3676C27.1485 29.0579 26.5024 27.7024 26.5024 27.7024L26.4568 27.7283C26.2807 27.9638 25.9807 28.2624 25.4746 28.5733Z" fill="url(#paint6_linear_179_2)"/>
<path d="M22.0799 32.5587L22.3748 32.9971C22.3748 32.9971 23.0392 33.0662 24.6897 32.1445C26.3403 31.2221 26.9546 30.6469 26.9872 30.3859C27.0198 30.125 26.7876 29.9266 26.7876 29.9266C26.7876 29.9266 24.1662 32.1273 22.0799 32.5587Z" fill="url(#paint7_linear_179_2)"/>
<path d="M18.8537 23.4476L19.5213 25.6138C19.5213 25.6138 21.2542 28.9951 21.8754 30.0984C22.6541 31.4822 25.1508 35.542 25.1508 35.542L25.5133 35.3873L19.9597 25.3422L19.1977 23.1496L18.8537 23.4476Z" fill="url(#paint8_linear_179_2)"/>
<path d="M25.5125 35.3872L23.192 29.8797C23.192 29.8797 22.0694 27.7565 21.6643 27.0658C21.0794 26.0673 19.1969 23.1496 19.1969 23.1496L19.979 25.4382L25.5125 35.3872Z" fill="url(#paint9_linear_179_2)"/>
<defs>
<linearGradient id="paint0_linear_179_2" x1="27.1514" y1="47.4432" x2="27.7065" y2="30.5684" gradientUnits="userSpaceOnUse">
<stop stop-color="#88AEDA"/>
<stop offset="0.042" stop-color="#8EADD4"/>
<stop offset="0.496" stop-color="#95A4CB"/>
<stop offset="0.828" stop-color="#52A4EF"/>
<stop offset="1" stop-color="#5E8BFF"/>
</linearGradient>
<linearGradient id="paint1_linear_179_2" x1="26.6169" y1="43.5642" x2="27.034" y2="30.8823" gradientUnits="userSpaceOnUse">
<stop stop-color="#51C9DC"/>
<stop offset="0.042" stop-color="#8ED0D4"/>
<stop offset="0.496" stop-color="#95C1D9"/>
<stop offset="0.828" stop-color="#6DE1F1"/>
<stop offset="1" stop-color="#5EF5FF"/>
</linearGradient>
<linearGradient id="paint2_linear_179_2" x1="23.3455" y1="17.8848" x2="2.33961" y2="30.3288" gradientUnits="userSpaceOnUse">
<stop stop-color="#1A2332"/>
<stop offset="0.488" stop-color="#093979"/>
</linearGradient>
<linearGradient id="paint3_linear_179_2" x1="15.4132" y1="8.32793" x2="10.54" y2="11.0985" gradientUnits="userSpaceOnUse">
<stop stop-color="#0029BA"/>
<stop offset="0.745" stop-color="#52FF00"/>
</linearGradient>
<linearGradient id="paint4_linear_179_2" x1="27.9139" y1="29.7253" x2="28.2325" y2="20.0402" gradientUnits="userSpaceOnUse">
<stop stop-color="#0029BA"/>
<stop offset="0.7449" stop-color="#52FF00"/>
<stop offset="0.745" stop-color="#CE00FF"/>
<stop offset="0.7451" stop-color="#52FF00"/>
</linearGradient>
<linearGradient id="paint5_linear_179_2" x1="18.8369" y1="27.3692" x2="16.3614" y2="33.1003" gradientUnits="userSpaceOnUse">
<stop stop-color="#0029BA"/>
<stop offset="0.745" stop-color="#52FF00"/>
</linearGradient>
<linearGradient id="paint6_linear_179_2" x1="27.2449" y1="28.4221" x2="21.0457" y2="32.2201" gradientUnits="userSpaceOnUse">
<stop stop-color="#0029BA"/>
<stop offset="0.438" stop-color="#184A01"/>
<stop offset="1" stop-color="#0029BA"/>
</linearGradient>
<linearGradient id="paint7_linear_179_2" x1="22.1136" y1="32.9538" x2="27.2044" y2="30.2627" gradientUnits="userSpaceOnUse">
<stop stop-color="#7633FF"/>
<stop offset="0.159" stop-color="#7137FF"/>
<stop offset="0.353" stop-color="#6243FF"/>
<stop offset="0.568" stop-color="#4957FF"/>
<stop offset="0.794" stop-color="#2672FF"/>
<stop offset="1" stop-color="#0090FF"/>
</linearGradient>
<linearGradient id="paint8_linear_179_2" x1="18.5138" y1="22.38" x2="24.744" y2="35.0194" gradientUnits="userSpaceOnUse">
<stop stop-color="#0029BA"/>
<stop offset="0.132" stop-color="#0029BA"/>
<stop offset="0.534" stop-color="#2E6CFF"/>
<stop offset="0.835" stop-color="#0D86FF"/>
<stop offset="1" stop-color="#0090FF"/>
</linearGradient>
<linearGradient id="paint9_linear_179_2" x1="22.1571" y1="35.277" x2="22.5523" y2="23.2599" gradientUnits="userSpaceOnUse">
<stop stop-color="#0029BA"/>
<stop offset="0.745" stop-color="#52FF00"/>
</linearGradient>
</defs>
</svg>
