<svg width="34" height="42" viewBox="0 0 34 42" fill="none" xmlns="http://www.w3.org/2000/svg">
<path d="M23.006 26.0221C23.6896 27.0077 24.2703 29.3059 24.2703 29.3059C24.2703 29.3059 24.1721 29.1202 24.0342 28.8159C23.8956 28.5117 23.5903 28.2532 23.5903 28.2532C23.5903 28.2532 23.9431 28.877 24.2024 29.7366C24.4617 30.5955 24.6328 31.7391 24.6328 31.7391C24.6328 31.7391 24.5285 31.5045 24.277 31.0909C24.0255 30.6766 23.5872 29.9648 23.5872 29.9648C23.5872 29.9648 24.4825 31.7348 24.578 34.3987C24.6154 35.4411 24.9318 37.1543 24.9318 37.1543C24.9318 37.1543 24.25 36.309 23.8541 35.9047C23.2259 35.2622 22.2064 34.5057 21.5661 33.9179C20.6126 33.0426 18.9437 31.2548 18.9437 31.2548L19.0883 31.6079C19.2329 31.9611 19.3867 32.3875 19.3867 32.3875C19.3867 32.3875 17.7846 30.5923 17.327 29.2805C16.8114 27.8022 17.1327 25.8629 17.1327 25.8629C17.1327 25.8629 17.9712 25.7188 19.0706 25.1172C20.2066 24.495 20.6786 23.9681 20.6786 23.9681C20.6786 23.9681 21.9594 24.5123 23.006 26.0221Z" fill="url(#paint0_linear_179_3)"/>
<path d="M22.0505 25.7581C22.5641 26.4986 23.001 28.226 23.001 28.226C23.001 28.226 22.9275 28.0865 22.8236 27.8577C22.7197 27.6289 22.4898 27.4349 22.4898 27.4349C22.4898 27.4349 22.7548 27.9041 22.9494 28.5496C23.1439 29.1951 23.2732 30.0542 23.2732 30.0542C23.2732 30.0542 23.1945 29.8781 23.0056 29.5671C22.8166 29.256 22.4872 28.7207 22.4872 28.7207C22.4872 28.7207 23.16 30.0511 23.2318 32.0534C23.2598 32.8368 23.4973 34.1241 23.4973 34.1241C23.4973 34.1241 22.9848 33.4886 22.6874 33.1849C22.2153 32.7019 21.4496 32.1337 20.9678 31.6914C20.2511 31.0332 18.9973 29.6901 18.9973 29.6901L19.1057 29.9556C19.2142 30.221 19.3298 30.5418 19.3298 30.5418C19.3298 30.5418 18.1261 29.1927 17.782 28.2067C17.3946 27.0957 17.6359 25.6379 17.6359 25.6379C17.6359 25.6379 18.2664 25.5299 19.092 25.0774C19.9463 24.6098 20.3 24.2136 20.3 24.2136C20.3 24.2136 21.2637 24.6237 22.0505 25.7581Z" fill="url(#paint1_linear_179_3)"/>
<path d="M15.3021 24.4397C15.1401 24.3242 11.9518 21.1468 10.1446 17.3527C8.33739 13.5587 8.22796 11.8626 8.22796 11.8626C8.22796 11.8626 8.92022 10.9472 10.6788 10.0669C12.4374 9.18658 13.1444 8.93383 13.3626 9.01466C13.5809 9.09548 17.394 12.8633 18.8985 16.9055C20.4029 20.9471 20.48 21.4094 20.48 21.4094C20.48 21.4094 20.4086 21.904 19.5263 22.4449C18.644 22.9858 16.4499 24.2386 15.9672 24.37C15.4845 24.5014 15.3021 24.4397 15.3021 24.4397Z" fill="url(#paint2_linear_179_3)"/>
<path d="M8.22383 5.82832C7.90441 6.03875 7.8391 6.33053 7.79901 8.11393C7.75892 9.89732 8.28575 11.7724 8.28575 11.7724L8.32099 11.7524C8.561 11.4837 9.28458 10.7646 10.6786 10.0664C12.0023 9.40357 12.7302 9.09708 13.1022 9.01967L13.2171 8.95365L12.9331 8.6318C12.6491 8.30996 10.7986 6.96131 9.93224 6.45445C9.06648 5.94761 8.54326 5.6179 8.22383 5.82832Z" fill="url(#paint3_linear_179_3)"/>
<path d="M20.4291 21.26L24.6625 23.4414C24.6625 23.4414 23.9013 21.4114 22.4345 19.0264C20.9678 16.6414 20.7346 16.45 20.7346 16.45L18.403 15.7476C18.403 15.7483 20.0068 19.5536 20.4291 21.26Z" fill="url(#paint4_linear_179_3)"/>
<path d="M11.5653 19.85L11.0538 21.9855C11.0538 21.9855 11.7815 23.9043 12.7588 25.5188C13.7361 27.1333 14.8431 28.7149 14.8431 28.7149L15.2058 24.4037C15.2052 24.403 12.1814 21.2496 11.5653 19.85Z" fill="url(#paint5_linear_179_3)"/>
<path d="M19.5256 22.4451C18.6433 22.9866 16.4492 24.2387 15.9665 24.3702C15.8353 24.4062 15.7271 24.427 15.6376 24.4394L16.423 25.5807C16.423 25.5807 17.2291 25.6809 18.7688 24.7383C20.3086 23.7958 20.8398 23.2977 20.8291 23.0585C20.8184 22.8193 20.3194 21.7725 20.3194 21.7725L20.2842 21.7925C20.1482 21.9744 19.9165 22.205 19.5256 22.4451Z" fill="url(#paint6_linear_179_3)"/>
<path d="M16.9038 25.5229L17.1316 25.8614C17.1316 25.8614 17.6447 25.9148 18.9194 25.203C20.1941 24.4906 20.6685 24.0464 20.6937 23.8449C20.7189 23.6434 20.5395 23.4902 20.5395 23.4902C20.5395 23.4902 18.5151 25.1897 16.9038 25.5229Z" fill="url(#paint7_linear_179_3)"/>
<path d="M14.4124 18.4864L14.9279 20.1594C14.9279 20.1594 16.2662 22.7706 16.746 23.6228C17.3474 24.6915 19.2755 27.8267 19.2755 27.8267L19.5554 27.7072L15.2665 19.9496L14.678 18.2563L14.4124 18.4864Z" fill="url(#paint8_linear_179_3)"/>
<path d="M19.5549 27.7072L17.7628 23.4538C17.7628 23.4538 16.8959 21.8141 16.583 21.2807C16.1313 20.5095 14.6775 18.2563 14.6775 18.2563L15.2815 20.0237L19.5549 27.7072Z" fill="url(#paint9_linear_179_3)"/>
<defs>
<linearGradient id="paint0_linear_179_3" x1="20.8206" y1="37.018" x2="21.2492" y2="23.9859" gradientUnits="userSpaceOnUse">
<stop stop-color="#88AEDA"/>
<stop offset="0.042" stop-color="#8EADD4"/>
<stop offset="0.496" stop-color="#95A4CB"/>
<stop offset="0.828" stop-color="#52A4EF"/>
<stop offset="1" stop-color="#5E8BFF"/>
</linearGradient>
<linearGradient id="paint1_linear_179_3" x1="20.4078" y1="34.0222" x2="20.73" y2="24.2282" gradientUnits="userSpaceOnUse">
<stop stop-color="#51C9DC"/>
<stop offset="0.042" stop-color="#8ED0D4"/>
<stop offset="0.496" stop-color="#95C1D9"/>
<stop offset="0.828" stop-color="#6DE1F1"/>
<stop offset="1" stop-color="#5EF5FF"/>
</linearGradient>
<linearGradient id="paint2_linear_179_3" x1="17.8814" y1="14.1904" x2="1.65884" y2="23.8007" gradientUnits="userSpaceOnUse">
<stop stop-color="#1A2332"/>
<stop offset="0.488" stop-color="#093979"/>
</linearGradient>
<linearGradient id="paint3_linear_179_3" x1="11.7552" y1="6.80982" x2="7.99175" y2="8.94948" gradientUnits="userSpaceOnUse">
<stop stop-color="#0029BA"/>
<stop offset="0.745" stop-color="#52FF00"/>
</linearGradient>
<linearGradient id="paint4_linear_179_3" x1="21.4095" y1="23.3347" x2="21.6555" y2="15.855" gradientUnits="userSpaceOnUse">
<stop stop-color="#0029BA"/>
<stop offset="0.7449" stop-color="#52FF00"/>
<stop offset="0.745" stop-color="#CE00FF"/>
<stop offset="0.7451" stop-color="#52FF00"/>
</linearGradient>
<linearGradient id="paint5_linear_179_3" x1="14.3993" y1="21.5151" x2="12.4875" y2="25.9412" gradientUnits="userSpaceOnUse">
<stop stop-color="#0029BA"/>
<stop offset="0.745" stop-color="#52FF00"/>
</linearGradient>
<linearGradient id="paint6_linear_179_3" x1="20.8928" y1="22.3284" x2="16.1052" y2="25.2615" gradientUnits="userSpaceOnUse">
<stop stop-color="#0029BA"/>
<stop offset="0.438" stop-color="#184A01"/>
<stop offset="1" stop-color="#0029BA"/>
</linearGradient>
<linearGradient id="paint7_linear_179_3" x1="16.9298" y1="25.828" x2="20.8614" y2="23.7497" gradientUnits="userSpaceOnUse">
<stop stop-color="#7633FF"/>
<stop offset="0.159" stop-color="#7137FF"/>
<stop offset="0.353" stop-color="#6243FF"/>
<stop offset="0.568" stop-color="#4957FF"/>
<stop offset="0.794" stop-color="#2672FF"/>
<stop offset="1" stop-color="#0090FF"/>
</linearGradient>
<linearGradient id="paint8_linear_179_3" x1="14.1498" y1="17.6619" x2="18.9613" y2="27.4232" gradientUnits="userSpaceOnUse">
<stop stop-color="#0029BA"/>
<stop offset="0.132" stop-color="#0029BA"/>
<stop offset="0.534" stop-color="#2E6CFF"/>
<stop offset="0.835" stop-color="#0D86FF"/>
<stop offset="1" stop-color="#0090FF"/>
</linearGradient>
<linearGradient id="paint9_linear_179_3" x1="16.9635" y1="27.6221" x2="17.2688" y2="18.3414" gradientUnits="userSpaceOnUse">
<stop stop-color="#0029BA"/>
<stop offset="0.745" stop-color="#52FF00"/>
</linearGradient>
</defs>
</svg>
